<?xml version="1.0" encoding="utf-8"?>
<svg xmlns="http://www.w3.org/2000/svg" id="svg537795" viewBox="0 0 1024 512" height="512px" width="1024px" version="1.1">
  <g id="logo-group" transform="matrix(1.383196, 0, 0, 1.383196, -196.204269, -275.160736)">
    <g id="logo-center" transform="translate(0 0)">
      <g id="slogan" style="font-style:normal;font-weight:500;font-size:32px;line-height:1;font-family:Montserrat;font-variant-ligatures:none;text-align:center;text-anchor:middle" transform="translate(0 0)"/>
      <g id="title" style="font-style:normal;font-weight:normal;font-size:72px;line-height:1;font-family:'Brandmark Sans 50 Spectrum';font-variant-ligatures:normal;text-align:center;text-anchor:middle" transform="translate(0 0)">
        <g id="path537804" aria-label="g" transform="translate(0 329.63500000000005) translate(222.8204775000001 -49.88200000000002) scale(2.75) translate(-414.39837 60.408)">
          <path d="M84.16139,125.56009c1.51221,0,2.95227.57605,4.03235,1.65616,3.52832,3.4563,7.12866,4.46439,11.88098,4.46439,4.68042,0,8.28076-1.00809,11.73706-4.3924,1.08008-.93607,2.52026-1.58411,4.03235-1.58411,3.31238,0,5.90454,2.66422,5.90454,5.90448,0,1.80017-.79211,3.31232-1.94421,4.46442-5.83252,5.25644-12.6731,7.48865-19.72974,7.48865s-14.04114-2.3042-19.94568-7.70468c-1.1521-1.1521-1.94421-2.66422-1.94421-4.32037,0-3.24026,2.59229-5.97653,5.97656-5.97653Z" class="c3" stroke-width="0" transform="translate(338.5175 -122.31459)" stroke-linejoin="miter" stroke-miterlimit="2" fill="#37dd3e" stroke="#37dd3e"/>
          <path d="M100.07472,74.50769c-13.17725,0-24.19385,10.80078-24.19385,24.05029,0,13.46484,11.0166,24.26562,24.19385,24.26562,13.24951,0,24.05029-10.80078,24.05029-24.26562,0-13.24951-10.80078-24.05029-24.05029-24.05029ZM100.07472,110.94275c-6.76855,0-12.38525-5.47266-12.38525-12.38477,0-6.76855,5.6167-12.24121,12.38525-12.24121,6.69678,0,12.16943,5.47266,12.16943,12.24121,0,6.91211-5.47266,12.38477-12.16943,12.38477Z" class="c1" stroke-width="0" transform="translate(338.5175 -122.31459)" stroke-linejoin="miter" stroke-miterlimit="2" fill="#00a600" stroke="#00a600"/>
          <path class="c3" stroke-width="0" transform="translate(338.5175 -122.31459)" stroke-linejoin="miter" stroke-miterlimit="2" fill="#37dd3e" stroke="#37dd3e"/>
        </g>
        <g id="path537806" aria-label="t" transform="translate(0 329.63500000000005) translate(388.266335 -49.486000000000004) scale(2.75) translate(-469.5605 60.264)">
          <path d="M110.76222,110.9784c-.03223,0-.06299-.00439-.09473-.00439h.09473c-6.73145,0-12.23047-5.49902-12.23047-12.42041v-11.75635h6.25732c3.30225,0,5.94531-2.62939,5.9707-5.92578-.02539-3.2959-2.66846-5.92529-5.9707-5.92529h-6.25732v-6.92139c0-3.30225-2.62988-5.94482-5.92578-5.9707-3.2959.02588-5.92578,2.66846-5.92578,5.9707v30.52881c0,13.43896,10.77002,24.23096,24.01074,24.26953.02393-.00049.04736-.00439.07129-.00537,3.24121-.14111,5.82324-2.72412,5.87354-5.96582-.05029-3.24121-2.63232-5.82324-5.87354-5.87354Z" class="c1" stroke-width="0" transform="translate(382.88031 -122.31809)" stroke-linejoin="miter" stroke-miterlimit="2" fill="#00a600" stroke="#00a600"/>
          <path d="M98.53163,74.94605h-5.92579c-3.27258,0-5.92553,2.65295-5.92553,5.92553h0c0,3.27259,2.65295,5.92554,5.92553,5.92554h5.92579v-11.85107Z" class="c2" stroke-width="0" transform="translate(382.88031 -122.31809)" stroke-linejoin="miter" stroke-miterlimit="2" fill="#1bc11f" stroke="#1bc11f"/>
          <path d="M104.7892,86.79712c3.30225,0,5.94507-2.62939,5.9707-5.92578-.02563-3.2959-2.66846-5.92529-5.9707-5.92529h-6.25757v11.85107h6.25757Z" class="c3" stroke-width="0" transform="translate(382.88031 -122.31809)" stroke-linejoin="miter" stroke-miterlimit="2" fill="#37dd3e" stroke="#37dd3e"/>
        </g>
        <g id="path537808" aria-label="D" transform="translate(0 329.63500000000005) translate(495.8776025000001 -65.92) scale(2.75) translate(-503.69187 66.24)">
          <path d="M99.92773,74.63367c4.49805,0,8.74316,1.26025,12.38525,3.44482v-16.02783c0-3.57812,3.0249-6.3999,6.62402-5.92432,3.01465.39893,5.18506,3.12109,5.18506,6.16211v36.26953c0,.0166-.00195.03271-.00195.04932,0,.02588.00195.05078.00195.07666,0,13.46484-11.0166,24.26611-24.19434,24.26611-13.24902,0-24.0498-10.80127-24.0498-24.26611,0-13.24902,10.80078-24.05029,24.0498-24.05029ZM99.92773,111.06873c1.18457,0,2.33057-.17627,3.42041-.48975.23242-.11572.46973-.2251.71924-.31201,4.45117-1.55518,7.77148-5.63818,8.19678-10.62256.01318-.1709.02002-.34326.02637-.51611.00732-.16602.01855-.33057.01953-.49854-.02979-6.74316-5.63184-12.18701-12.38232-12.18701-6.69629,0-12.16895,5.47266-12.16895,12.24121,0,6.9126,5.47266,12.38477,12.16895,12.38477Z" class="c1" stroke-width="0" transform="translate(427.81395 -122.3139)" stroke-linejoin="miter" stroke-miterlimit="2" fill="#00a600" stroke="#00a600"/>
          <path d="M112.31299,78.07849v-16.02783c0-3.57812,3.0249-6.3999,6.62402-5.92432,3.01465.39893,5.18506,3.12109,5.18506,6.16211v36.26953c0,.0166-.00195.03271-.00195.04932-.02832-8.69482-4.79932-16.32568-11.80713-20.52881Z" class="c3" stroke-width="0" transform="translate(427.81395 -122.3139)" stroke-linejoin="miter" stroke-miterlimit="2" fill="#37dd3e" stroke="#37dd3e"/>
          <path d="M107.60352,121.61219c-3.70312,1.229-7.53174-1.49561-7.53174-5.39746v-.5127c0-2.22607,1.31836-4.15137,3.27637-5.12305,4.84619-1.39404,8.51318-5.66846,8.91602-10.93457.01465-.17041.01855-.34375.02637-.51611.00537-.14893.02246-.29395.02246-.44434,0-.01855-.00293-.03564-.00293-.0542.00049-.02393.00293-.04785.00293-.07178v-20.47949c7.00781,4.20312,11.77881,11.83398,11.80713,20.52881-.02148,10.77197-6.95312,19.83105-16.5166,23.00488Z" class="c2" stroke-width="0" transform="translate(427.81395 -122.3139)" stroke-linejoin="miter" stroke-miterlimit="2" fill="#1bc11f" stroke="#1bc11f"/>
        </g>
        <g id="path537810" aria-label="B" transform="translate(0 329.63500000000005) translate(668.5195224999999 -65.92) scale(2.75) translate(-561.47075 66.24)">
          <path d="M100.07228,74.63367c-4.49805,0-8.74316,1.26025-12.38525,3.44482v-16.02783c0-3.57812-3.0249-6.3999-6.62402-5.92432-3.01465.39893-5.18506,3.12109-5.18506,6.16211v36.26953c0,.0166.00195.03271.00195.04932,0,.02588-.00195.05078-.00195.07666,0,13.46484,11.0166,24.26611,24.19434,24.26611,13.24902,0,24.0498-10.80127,24.0498-24.26611,0-13.24902-10.80078-24.05029-24.0498-24.05029ZM100.07228,111.06873c-1.18457,0-2.33057-.17627-3.42041-.48975-.23242-.11572-.46973-.2251-.71924-.31201-4.45117-1.55518-7.77148-5.63818-8.19678-10.62256-.01318-.1709-.02002-.34326-.02637-.51611-.00732-.16602-.01855-.33057-.01953-.49854.02979-6.74316,5.63184-12.18701,12.38232-12.18701,6.69629,0,12.16895,5.47266,12.16895,12.24121,0,6.9126-5.47266,12.38477-12.16895,12.38477Z" class="c1" stroke-width="0" transform="translate(485.59281 -122.3139)" stroke-linejoin="miter" stroke-miterlimit="2" fill="#00a600" stroke="#00a600"/>
          <path d="M87.68702,78.07849v-16.02783c0-3.57812-3.0249-6.3999-6.62402-5.92432-3.01465.39893-5.18506,3.12109-5.18506,6.16211v36.26953c0,.0166.00195.03271.00195.04932.02832-8.69482,4.79932-16.32568,11.80713-20.52881Z" class="c3" stroke-width="0" transform="translate(485.59281 -122.3139)" stroke-linejoin="miter" stroke-miterlimit="2" fill="#37dd3e" stroke="#37dd3e"/>
          <path d="M92.3965,121.61219c3.70312,1.229,7.53174-1.49561,7.53174-5.39746v-.5127c0-2.22607-1.31836-4.15137-3.27637-5.12305-4.84619-1.39404-8.51318-5.66846-8.91602-10.93457-.01465-.17041-.01855-.34375-.02637-.51611-.00537-.14893-.02246-.29395-.02246-.44434,0-.01855.00293-.03564.00293-.0542-.00049-.02393-.00293-.04785-.00293-.07178v-20.47949c-7.00781,4.20312-11.77881,11.83398-11.80713,20.52881.02148,10.77197,6.95312,19.83105,16.5166,23.00488Z" class="c2" stroke-width="0" transform="translate(485.59281 -122.3139)" stroke-linejoin="miter" stroke-miterlimit="2" fill="#1bc11f" stroke="#1bc11f"/>
        </g>
      </g>
    </g>
  </g>
</svg>