<?xml version="1.0" encoding="utf-8"?>
<svg viewBox="0 0 60.7 22" y="0px" x="0px" xmlns="http://www.w3.org/2000/svg" id="Layer_1" version="1.1">
  <g>
    <g>
      <path d="M28.6,16V6h1.6v8.6h4.2V16H28.6z" fill="#EFF2F4"/>
      <path d="M41.9,16h-5.7V6h5.7v1.4h-4v2.7h3.8v1.4h-3.8v3.1h4V16z" fill="#EFF2F4"/>
      <path d="M52.3,16h-2l-4.9-8h-0.1l0,0.4c0.1,0.8,0.1,1.6,0.1,2.3V16H44V6h2l4.9,7.9h0c0-0.1,0-0.5-0.1-1.1 c0-0.7,0-1.2,0-1.5V6h1.5V16z" fill="#EFF2F4"/>
      <path d="M60.7,13.2c0,0.9-0.3,1.6-1,2.1s-1.5,0.8-2.7,0.8s-2.1-0.2-2.8-0.5V14c0.5,0.2,0.9,0.4,1.5,0.5 s1,0.2,1.4,0.2c0.6,0,1.1-0.1,1.4-0.4s0.5-0.6,0.5-1c0-0.4-0.1-0.7-0.4-1s-0.9-0.6-1.8-0.9c-0.9-0.4-1.6-0.8-1.9-1.3 c-0.4-0.5-0.6-1-0.6-1.7c0-0.8,0.3-1.5,0.9-2s1.4-0.7,2.4-0.7c1,0,1.9,0.2,2.9,0.6l-0.5,1.3c-0.9-0.4-1.7-0.6-2.4-0.6 c-0.5,0-0.9,0.1-1.2,0.3c-0.3,0.2-0.4,0.5-0.4,0.9c0,0.3,0.1,0.5,0.2,0.7s0.3,0.4,0.5,0.5s0.7,0.4,1.4,0.6 c0.7,0.3,1.3,0.6,1.6,0.9c0.3,0.3,0.6,0.6,0.8,0.9C60.7,12.4,60.7,12.8,60.7,13.2z" fill="#EFF2F4"/>
    </g>
    <g>
      <path d="M10.1,22h8.5l-2-8.3L10.1,22z" fill="#FFFFFF"/>
      <path d="M0,17.2V22h8.9l3.7-4.8H0z" fill="#FFFFFF"/>
      <path d="M12.1,5.2l9.9,4.8V0.5L12.1,5.2z" fill="#FFFFFF"/>
      <path d="M19.6,22H22V11.1l-5.6-2.7L19.6,22z" fill="#FFFFFF"/>
      <path d="M20.8,0H8.4L7,6.6L20.8,0z" fill="#FFFFFF"/>
      <path d="M0,7.1v9.2h7.3L0,7.1z" fill="#FFFFFF"/>
      <path d="M7.4,0H0v5.5l4.9,6.1L7.4,0z" fill="#FFFFFF"/>
    </g>
  </g>
</svg>